<svg id="Layer_1" data-name="Layer 1" xmlns="http://www.w3.org/2000/svg" viewBox="0 0 25.19 31.43"><defs><style>.cls-1{fill:#e53125;stroke:#e53327;stroke-miterlimit:10;}</style></defs><title>TP2</title><path class="cls-1" d="M20.61,4a0.68,0.68,0,0,1-.13-0.39A0.78,0.78,0,0,1,20.84,3a1.22,1.22,0,0,1,.75-0.27,2.09,2.09,0,0,1,1.32.46,1.24,1.24,0,0,1,.58.91,2,2,0,0,1-.9,1.57,3.38,3.38,0,0,1-2.12.69,3.48,3.48,0,0,1-2.25-.76,2.25,2.25,0,0,1-.94-1.8,2.6,2.6,0,0,1,1.49-2,6.42,6.42,0,0,1,3.57-1A7.47,7.47,0,0,1,26.24,1.9,3,3,0,0,1,28,4.48a3.91,3.91,0,0,1-2.31,3.64q-2.31,1.23-8.43,1.8,0.17,4.39.17,7.42,0,3.93-.41,12.53a17.36,17.36,0,0,0,5.66-.77v1.18a60.73,60.73,0,0,1-6.36.47,23.17,23.17,0,0,0-3.17.41v-1L15.9,30a102.9,102.9,0,0,0-.69-10.28,56.64,56.64,0,0,0-1.56-9.38q-2.76.49-8.19,1l0.31,3.53-1.15.11A24.14,24.14,0,0,0,4,9.85L5.1,9.68l0.18,0.77q6-.45,11.42-1.29t7.37-1.93A3.43,3.43,0,0,0,26,4.1a2.34,2.34,0,0,0-1-1.94,4.4,4.4,0,0,0-2.72-.77,4,4,0,0,0-2.3.74A2.05,2.05,0,0,0,18.87,3.8a2.1,2.1,0,0,0,.55,1.38,1.64,1.64,0,0,0,1.27.65,1.83,1.83,0,0,0,1.24-.39,1.22,1.22,0,0,0,.46-1,0.87,0.87,0,0,0-.24-0.56,0.76,0.76,0,0,0-.61-0.28A2,2,0,0,0,20.61,4Z" transform="translate(-3.34 -0.33)"/></svg>